<svg height="50" viewBox="0 0 39.834 50" width="39.834" xmlns="http://www.w3.org/2000/svg"><path d="m64.718 28.992a2.5 2.5 0 0 0 -2.175-1.5h-11.443l3.17-11.847a2.49 2.49 0 0 0 -2.4-3.149h-17.5a2.5 2.5 0 0 0 -2.5 1.85l-6.7 25a2.49 2.49 0 0 0 2.43 3.144h9.673l-4.524 16.846a2.5 2.5 0 0 0 4.274 2.325l27.245-29.994a2.5 2.5 0 0 0 .45-2.675zm-24.47 21.7 2.674-10a2.49 2.49 0 0 0 -2.4-3.149h-9.6l5.349-20.046h12.329l-3.178 11.845a2.5 2.5 0 0 0 2.5 3.149h8.923z" fill="#f16822" transform="translate(-25.087 -12.494)"/></svg>