<svg height="47.745" viewBox="0 0 50 47.745" width="50" xmlns="http://www.w3.org/2000/svg"><path d="m62.439 33.264a2.5 2.5 0 0 0 -2.147-1.673l-14.206-2.072-6.366-12.907a2.5 2.5 0 0 0 -4.494 0l-6.367 12.882-14.206 2.1a2.459 2.459 0 0 0 -1.4 4.194l10.311 9.986-2.5 14.181a2.495 2.495 0 0 0 3.62 2.671l12.783-6.666 12.733 6.691a2.322 2.322 0 0 0 1.148.3 2.51 2.51 0 0 0 2.472-2.971l-2.491-14.18 10.311-9.989a2.5 2.5 0 0 0 .799-2.547zm-15.354 9.987a2.5 2.5 0 0 0 -.724 2.222l1.8 10.461-9.39-4.994a2.5 2.5 0 0 0 -2.347 0l-9.387 4.993 1.8-10.461a2.5 2.5 0 0 0 -.724-2.222l-7.49-7.49 10.511-1.523a2.5 2.5 0 0 0 1.9-1.373l4.444-9.512 4.694 9.537a2.5 2.5 0 0 0 1.9 1.373l10.511 1.523z" fill="#f16822" transform="translate(-12.523 -15.204)"/></svg>