<svg height="24" viewBox="0 0 24.07 24" width="24.07" xmlns="http://www.w3.org/2000/svg"><path d="m23.068 15.278a3.8 3.8 0 0 1 -.809-.145 11.4 11.4 0 0 1 -1.582-.471 2.416 2.416 0 0 0 -3 1.208l-.266.544a14.711 14.711 0 0 1 -3.211-2.414 14.711 14.711 0 0 1 -2.416-3.213l.507-.338a2.416 2.416 0 0 0 1.208-3 12.477 12.477 0 0 1 -.471-1.582c-.06-.266-.109-.544-.145-.821a3.623 3.623 0 0 0 -3.62-3.006h-3.624a3.623 3.623 0 0 0 -3.623 4.119 22.949 22.949 0 0 0 19.953 19.881h.459a3.615 3.615 0 0 0 3.624-3.64v-3.619a3.623 3.623 0 0 0 -2.984-3.503zm.6 7.247a1.208 1.208 0 0 1 -.411.906 1.268 1.268 0 0 1 -.99.3 20.533 20.533 0 0 1 -17.767-17.85 1.317 1.317 0 0 1 .3-.99 1.208 1.208 0 0 1 .906-.411h3.629a1.208 1.208 0 0 1 1.208.954q.072.5.181.978a13.432 13.432 0 0 0 .556 1.872l-1.691.786a1.208 1.208 0 0 0 -.589 1.606 17.5 17.5 0 0 0 8.455 8.455 1.28 1.28 0 0 0 1.606-.628l.749-1.691a16.536 16.536 0 0 0 1.908.556q.483.109.978.181a1.208 1.208 0 0 1 .954 1.208z" fill="#777" transform="translate(-1.982 -2.04)"/></svg>