<svg height="50" viewBox="0 0 45 50" width="45" xmlns="http://www.w3.org/2000/svg"><path d="m35.5 32h-20a2.5 2.5 0 0 0 0 5h20a2.5 2.5 0 0 0 0-5zm0-10h-15a2.5 2.5 0 0 0 0 5h15a2.5 2.5 0 0 0 0-5zm10-15h-7.5v-2.5a2.5 2.5 0 0 0 -5 0v2.5h-5v-2.5a2.5 2.5 0 0 0 -5 0v2.5h-5v-2.5a2.5 2.5 0 0 0 -5 0v2.5h-7.5a2.5 2.5 0 0 0 -2.5 2.5v35a7.5 7.5 0 0 0 7.5 7.5h30a7.5 7.5 0 0 0 7.5-7.5v-35a2.5 2.5 0 0 0 -2.5-2.5zm-2.5 37.5a2.5 2.5 0 0 1 -2.5 2.5h-30a2.5 2.5 0 0 1 -2.5-2.5v-32.5h5v2.5a2.5 2.5 0 0 0 5 0v-2.5h5v2.5a2.5 2.5 0 0 0 5 0v-2.5h5v2.5a2.5 2.5 0 0 0 5 0v-2.5h5z" fill="#f16822" transform="translate(-3 -2)"/></svg>