<svg height="48.372" viewBox="0 0 69.765 48.372" width="69.765" xmlns="http://www.w3.org/2000/svg"><path d="m90.576 65.054s-12.44-5.554-26.376-1.254-29.8 8.332-43.255-8.9c0 0 12.44 5.549 26.374 1.251s29.8-8.33 43.256 8.908z" fill="#f16822" transform="translate(-20.945 -19.59)"/><path d="m37.8 39.393s-5.275-10.771-15.345-12.331-21.201-4.201-22.455-27.062c0 0 5.27 10.766 15.345 12.328s21.2 4.207 22.453 27.065z" fill="#676767" transform="matrix(.998 -.07 .07 .998 28.637 9.075)"/><path d="m22.818 44.247s-1.913-10.247-9.649-15.13-16.075-10.986-12.18-29.117c0 0 1.915 10.248 9.649 15.13s16.077 10.986 12.18 29.117z" fill="#121212" transform="matrix(.999 -.035 .035 .999 44.427 .831)"/></svg>